<svg width="28" height="28" viewBox="0 0 28 28" fill="none" xmlns="http://www.w3.org/2000/svg">
<mask id="mask0_674_97" style="mask-type:luminance" maskUnits="userSpaceOnUse" x="0" y="0" width="28" height="28">
<path d="M28 0H0V28H28V0Z" fill="white"/>
</mask>
<g mask="url(#mask0_674_97)">
<path fill-rule="evenodd" clip-rule="evenodd" d="M16.282 10.5663L20.9094 5.93897C21.2275 5.62097 21.743 5.62097 22.0611 5.93897C22.379 6.25698 22.379 6.77256 22.0611 7.09055L17.4336 11.7179C18.478 11.4832 19.6974 11.3485 21 11.3485C24.866 11.3485 28 12.5356 28 14C28 15.4644 24.866 16.6515 21 16.6515C19.6974 16.6515 18.478 16.5168 17.4336 16.282L22.0611 20.9094C22.379 21.2275 22.379 21.743 22.0611 22.0611C21.743 22.379 21.2275 22.379 20.9094 22.0611L16.282 17.4336C16.5168 18.478 16.6515 19.6976 16.6515 21C16.6515 24.866 15.4644 28 14 28C12.5356 28 11.3485 24.866 11.3485 21C11.3485 19.6974 11.4832 18.478 11.7179 17.4336L7.09055 22.0611C6.77256 22.379 6.25698 22.379 5.93898 22.0611C5.62099 21.743 5.62099 21.2275 5.93898 20.9094L10.5664 16.282C9.52189 16.5168 8.30249 16.6515 7 16.6515C3.13401 16.6515 0 15.4644 0 14C0 12.5356 3.13401 11.3485 7 11.3485C8.30249 11.3485 9.5219 11.4832 10.5664 11.7179L5.93898 7.09057C5.62099 6.77257 5.62099 6.25699 5.93898 5.93898C6.25698 5.62099 6.77256 5.62099 7.09055 5.93898L11.7179 10.5664C11.4832 9.5219 11.3485 8.3025 11.3485 7C11.3485 3.13401 12.5356 0 14 0C15.4644 0 16.6515 3.13401 16.6515 7C16.6515 8.30249 16.5168 9.52189 16.282 10.5663Z" fill="white"/>
</g>
</svg>
