<svg width="48" height="48" viewBox="0 0 48 48" fill="none" xmlns="http://www.w3.org/2000/svg">
<g clip-path="url(#clip0_674_515)">
<mask id="mask0_674_515" style="mask-type:luminance" maskUnits="userSpaceOnUse" x="0" y="0" width="48" height="48">
<path d="M48 0H0V48H48V0Z" fill="white"/>
</mask>
<g mask="url(#mask0_674_515)">
<path fill-rule="evenodd" clip-rule="evenodd" d="M24 8.07478C22.2657 8.07478 20.8598 9.48067 20.8598 11.215H12.785C12.785 5.02111 17.8062 0 24 0C30.1939 0 35.215 5.02111 35.215 11.215C35.215 17.4088 30.1939 22.4299 24 22.4299V14.3551C25.7342 14.3551 27.1402 12.9492 27.1402 11.215C27.1402 9.48067 25.7342 8.07478 24 8.07478ZM39.9252 24C39.9252 22.2657 38.5193 20.8598 36.785 20.8598V12.785C42.979 12.785 48 17.8062 48 24C48 30.1939 42.979 35.215 36.785 35.215C30.5911 35.215 25.5701 30.1939 25.5701 24H33.6449C33.6449 25.7342 35.0508 27.1402 36.785 27.1402C38.5193 27.1402 39.9252 25.7342 39.9252 24ZM11.215 27.1402C9.48067 27.1402 8.07478 25.7342 8.07478 24C8.07478 22.2657 9.48067 20.8598 11.215 20.8598C12.9492 20.8598 14.3551 22.2657 14.3551 24H22.4299C22.4299 17.8062 17.4088 12.785 11.215 12.785C5.02111 12.785 0 17.8062 0 24C0 30.1939 5.02111 35.215 11.215 35.215V27.1402ZM24 39.9252C25.7342 39.9252 27.1402 38.5193 27.1402 36.785H35.215C35.215 42.979 30.1939 48 24 48C17.8062 48 12.785 42.979 12.785 36.785C12.785 30.5911 17.8062 25.5701 24 25.5701V33.6449C22.2657 33.6449 20.8598 35.0508 20.8598 36.785C20.8598 38.5193 22.2657 39.9252 24 39.9252Z" fill="white"/>
</g>
</g>
<defs>
<clipPath id="clip0_674_515">
<rect width="48" height="48" fill="white"/>
</clipPath>
</defs>
</svg>
