<svg width="28" height="28" viewBox="0 0 28 28" fill="none" xmlns="http://www.w3.org/2000/svg">
<mask id="mask0_674_124" style="mask-type:luminance" maskUnits="userSpaceOnUse" x="0" y="0" width="28" height="28">
<path d="M28 0H0V28H28V0Z" fill="white"/>
</mask>
<g mask="url(#mask0_674_124)">
<path d="M14 28C12.8333 28 11.8611 27.6233 11.0833 26.8698C10.3056 26.1163 9.91666 25.2049 9.91666 24.1354C9.91666 23.5278 10.0382 22.9809 10.2812 22.4948C10.5243 22.0087 10.9497 21.4739 11.5573 20.8907C12.1892 20.3073 12.6875 19.7604 13.0521 19.25C13.441 18.7153 13.6354 18.2535 13.6354 17.8646V16.5521C13.1007 16.4305 12.6267 16.1875 12.2135 15.8229C11.8247 15.434 11.5694 14.9722 11.4479 14.4375H10.1354C9.72222 14.4375 9.23611 14.632 8.67709 15.0209C8.11805 15.4097 7.58334 15.8837 7.07291 16.4427C6.5625 17.0017 6.05209 17.4149 5.54166 17.6823C5.05555 17.9497 4.49653 18.0834 3.86459 18.0834C2.77084 18.0834 1.84722 17.6945 1.09375 16.9166C0.364584 16.1389 0 15.1666 0 14C0 12.8333 0.364584 11.8611 1.09375 11.0833C1.84722 10.3056 2.77084 9.91666 3.86459 9.91666C4.88541 9.91666 5.76041 10.2812 6.48959 11.0104C7.21875 11.7396 7.875 12.3594 8.45834 12.8698C9.04166 13.3802 9.6007 13.6354 10.1354 13.6354H11.4479C11.5694 13.0764 11.8247 12.6146 12.2135 12.25C12.6267 11.8611 13.1007 11.6181 13.6354 11.5208V10.2083C13.6354 9.57639 13.1493 8.7743 12.1771 7.80209L11.4115 7.03646C10.4149 6.03994 9.91666 4.98264 9.91666 3.86459C9.91666 2.77084 10.3056 1.85937 11.0833 1.13021C11.8854 0.376736 12.8576 0 14 0C15.1666 0 16.1389 0.376736 16.9166 1.13021C17.6945 1.88369 18.0834 2.79514 18.0834 3.86459C18.0834 5.10416 17.4756 6.27084 16.2604 7.36459C15.0451 8.48264 14.4375 9.43055 14.4375 10.2083V11.5208C14.9965 11.6181 15.4584 11.8611 15.8229 12.25C16.2119 12.6146 16.4549 13.0764 16.5521 13.6354H17.8646C18.691 13.6354 19.6389 13.0156 20.7084 11.776C21.8021 10.5365 22.9445 9.91666 24.1354 9.91666C25.2291 9.91666 26.1407 10.3177 26.8698 11.1198C27.6233 11.8976 28 12.8576 28 14C28 15.1666 27.6233 16.1389 26.8698 16.9166C26.1163 17.6945 25.2049 18.0834 24.1354 18.0834C23.1146 18.0834 22.2517 17.7309 21.5468 17.0261C20.8421 16.3212 20.1858 15.7136 19.5782 15.2032C18.9704 14.6927 18.3994 14.4375 17.8646 14.4375H16.5521C16.3576 15.6041 15.6528 16.309 14.4375 16.5521V17.8646C14.4375 18.5937 15.0451 19.5296 16.2604 20.6718C17.4756 21.8142 18.0834 22.9687 18.0834 24.1354C18.0834 25.2291 17.6823 26.1407 16.8802 26.8698C16.1024 27.6233 15.1424 28 14 28Z" fill="white"/>
</g>
</svg>
