<svg width="48" height="48" viewBox="0 0 48 48" fill="none" xmlns="http://www.w3.org/2000/svg">
    <path
        d="M21.5836 1.47087C22.5977 -0.490291 25.4023 -0.490291 26.4163 1.47087L32.8735 13.9595C33.1322 14.4599 33.54 14.8677 34.0406 15.1264L46.529 21.5836C48.4903 22.5977 48.4903 25.4023 46.529 26.4163L34.0406 32.8735C33.54 33.1322 33.1322 33.54 32.8735 34.0406L26.4163 46.529C25.4023 48.4903 22.5977 48.4903 21.5836 46.529L15.1264 34.0406C14.8677 33.54 14.4599 33.1322 13.9595 32.8735L1.47087 26.4163C-0.490291 25.4023 -0.490291 22.5977 1.47087 21.5836L13.9595 15.1264C14.4599 14.8677 14.8677 14.4599 15.1264 13.9595L21.5836 1.47087Z"
        fill="white" />
</svg>
    