<svg width="28" height="28" viewBox="0 0 28 28" fill="none" xmlns="http://www.w3.org/2000/svg">
<mask id="mask0_674_115" style="mask-type:luminance" maskUnits="userSpaceOnUse" x="0" y="0" width="28" height="28">
<path d="M28 0H0V28H28V0Z" fill="white"/>
</mask>
<g mask="url(#mask0_674_115)">
<path fill-rule="evenodd" clip-rule="evenodd" d="M14 14C14 14 15.75 9.31371 15.75 5.99999C15.75 2.68629 14.9666 0 14 0C13.0335 0 12.25 2.68629 12.25 5.99999C12.25 9.31371 14 14 14 14ZM14 14C14 14 16.0763 18.5511 18.4194 20.8943C20.7626 23.2375 23.2161 24.5829 23.8995 23.8995C24.5829 23.2161 23.2375 20.7626 20.8943 18.4194C18.5511 16.0763 14 14 14 14ZM14 14C14 14 18.6864 12.25 22 12.25C25.3137 12.25 28 13.0335 28 14C28 14.9666 25.3137 15.75 22 15.75C18.6864 15.75 14 14 14 14ZM14 14C14 14 9.44885 16.0763 7.1057 18.4194C4.76256 20.7626 3.41708 23.2161 4.1005 23.8995C4.78393 24.5829 7.23744 23.2375 9.58058 20.8943C11.9237 18.5511 14 14 14 14ZM14 14C14.0039 14.0104 15.75 18.69 15.75 22C15.75 25.3137 14.9666 28 14 28C13.0335 28 12.25 25.3137 12.25 22C12.25 18.6864 14 14 14 14ZM14 14C14 14 9.31371 12.25 5.99999 12.25C2.68629 12.25 0 13.0335 0 14C0 14.9666 2.68629 15.75 5.99999 15.75C9.31371 15.75 14 14 14 14ZM14 14C14 14 18.5511 11.9237 20.8943 9.58058C23.2375 7.23743 24.5829 4.78391 23.8995 4.1005C23.2161 3.41708 20.7626 4.76256 18.4194 7.1057C16.0763 9.44885 14 14 14 14ZM9.58058 7.1057C11.9237 9.44885 14 14 14 14C14 14 9.44885 11.9237 7.10571 9.58058C4.76256 7.23744 3.41709 4.78393 4.1005 4.1005C4.78393 3.41709 7.23744 4.76256 9.58058 7.1057Z" fill="white"/>
</g>
</svg>
