<svg width="28" height="28" viewBox="0 0 28 28" fill="none" xmlns="http://www.w3.org/2000/svg">
<path d="M18.6667 9.3335C20.5232 9.3335 22.3037 10.071 23.6164 11.3837C24.9292 12.6965 25.6667 14.477 25.6667 16.3335V24.5002H21V16.3335C21 15.7147 20.7542 15.1212 20.3166 14.6836C19.879 14.246 19.2855 14.0002 18.6667 14.0002C18.0478 14.0002 17.4543 14.246 17.0168 14.6836C16.5792 15.1212 16.3333 15.7147 16.3333 16.3335V24.5002H11.6667V16.3335C11.6667 14.477 12.4042 12.6965 13.7169 11.3837C15.0297 10.071 16.8102 9.3335 18.6667 9.3335Z" stroke="white" stroke-width="2" stroke-linecap="round" stroke-linejoin="round"/>
<path d="M6.99999 10.5H2.33333V24.5H6.99999V10.5Z" stroke="white" stroke-width="2" stroke-linecap="round" stroke-linejoin="round"/>
<path d="M4.66666 7.00016C5.95533 7.00016 6.99999 5.95549 6.99999 4.66683C6.99999 3.37816 5.95533 2.3335 4.66666 2.3335C3.378 2.3335 2.33333 3.37816 2.33333 4.66683C2.33333 5.95549 3.378 7.00016 4.66666 7.00016Z" stroke="white" stroke-width="2" stroke-linecap="round" stroke-linejoin="round"/>
</svg>
