<svg width="40" height="40" viewBox="0 0 40 40" fill="none" xmlns="http://www.w3.org/2000/svg">
    <path d="M15 9.16663C15 7.84054 15.5268 6.56877 16.4645 5.63109C17.4021 4.69341 18.6739 4.16663 20 4.16663C21.3261 4.16663 22.5978 4.69341 23.5355 5.63109C24.4732 6.56877 25 7.84054 25 9.16663C25 10.4927 24.4732 11.7645 23.5355 12.7022C22.5978 13.6398 21.3261 14.1666 20 14.1666C18.6739 14.1666 17.4021 13.6398 16.4645 12.7022C15.5268 11.7645 15 10.4927 15 9.16663ZM30.8333 5.83329C29.7283 5.83329 28.6685 6.27228 27.887 7.05368C27.1056 7.83508 26.6667 8.89489 26.6667 9.99996C26.6667 11.105 27.1056 12.1648 27.887 12.9462C28.6685 13.7276 29.7283 14.1666 30.8333 14.1666C31.9384 14.1666 32.9982 13.7276 33.7796 12.9462C34.561 12.1648 35 11.105 35 9.99996C35 8.89489 34.561 7.83508 33.7796 7.05368C32.9982 6.27228 31.9384 5.83329 30.8333 5.83329ZM9.16666 5.83329C8.06159 5.83329 7.00179 6.27228 6.22038 7.05368C5.43898 7.83508 5 8.89489 5 9.99996C5 11.105 5.43898 12.1648 6.22038 12.9462C7.00179 13.7276 8.06159 14.1666 9.16666 14.1666C10.2717 14.1666 11.3315 13.7276 12.1129 12.9462C12.8943 12.1648 13.3333 11.105 13.3333 9.99996C13.3333 8.89489 12.8943 7.83508 12.1129 7.05368C11.3315 6.27228 10.2717 5.83329 9.16666 5.83329ZM16.0417 15.8333C15.1024 15.8333 14.2015 16.2064 13.5373 16.8706C12.8731 17.5348 12.5 18.4357 12.5 19.375V28.3333C12.5 30.3224 13.2902 32.2301 14.6967 33.6366C16.1032 35.0431 18.0109 35.8333 20 35.8333C21.9891 35.8333 23.8968 35.0431 25.3033 33.6366C26.7098 32.2301 27.5 30.3224 27.5 28.3333V19.375C27.5 18.4357 27.1269 17.5348 26.4627 16.8706C25.7985 16.2064 24.8976 15.8333 23.9583 15.8333H16.0417ZM10.8333 19.375C10.8333 18.0416 11.335 16.8241 12.16 15.9025C11.9289 15.8564 11.6939 15.8332 11.4583 15.8333H6.875C5.93569 15.8333 5.03485 16.2064 4.37066 16.8706C3.70647 17.5348 3.33333 18.4357 3.33333 19.375V27.5C3.33305 28.5073 3.59366 29.4976 4.08977 30.3744C4.58588 31.2511 5.30059 31.9844 6.16429 32.5029C7.02799 33.0214 8.01125 33.3074 9.0183 33.333C10.0254 33.3586 11.0219 33.123 11.9108 32.6491C11.2011 31.3214 10.831 29.8388 10.8333 28.3333V19.375ZM29.1667 28.3333C29.1667 29.8933 28.7767 31.3625 28.0892 32.6491C28.9781 33.123 29.9746 33.3586 30.9817 33.333C31.9887 33.3074 32.972 33.0214 33.8357 32.5029C34.6994 31.9844 35.4141 31.2511 35.9102 30.3744C36.4063 29.4976 36.6669 28.5073 36.6667 27.5V19.375C36.6667 18.4357 36.2935 17.5348 35.6293 16.8706C34.9651 16.2064 34.0643 15.8333 33.125 15.8333H28.5417C28.3011 15.8338 28.0672 15.8569 27.84 15.9025C28.6957 16.8565 29.1682 18.0934 29.1667 19.375V28.3333Z" fill="#5D45FD"/>
    </svg>
    